<svg xmlns="http://www.w3.org/2000/svg" viewBox="0 0 248 48" fill="currentColor">
  <g transform="scale(0.8)">
    <path transform="translate(0, 0.1)" d="M37.89662 1.23184c-2 2-1.39999 3.39999 4 9.5 2.89999 3.2 6.10001 6.8 7.2 8l1.89999 2.30001-13.1 0c-11 0-13.2-0.2-13.2-1.5 0-0.8-1.3-2.89999-2.89999-4.7-6-6.8-18.2-3.89999-21.10001 4.89999-4.60001 13.7 14.8 21.89999 22.5 9.60001l2-3.2 12.89999-0.1 12.9 0-1.9 2.19999c-1 1.3-4.2 4.89999-7.1 8-5.5 5.8-6.2 7.5-4.10001 9.60001 1.3 1.3 12.60001 1.60001 14.4 0.39999 2.10001-1.39999 18.39999-21.39999 18.39999-22.6 0-1.3-14.7-18.89999-18.10001-21.9-2.5-2-12.8-2.39999-14.69999-0.5"/>
    <path transform="translate(62, 0)" d="M1.27544 1.67581c-2.2 2.2-2.39999 1.89999 6.39999 11.9 4.39999 4.89999 8 9.5 8 10.1 0 0.60001-3.60001 5.2-8 10.3-6.8 7.89999-7.89999 9.5-7 11.2 1.10001 2 10.2 2.7 14.10001 1.10001 2.10001-0.89999 18.89999-21 18.89999-22.60001 0-1.2-14.7-18.89999-18.2-21.89999-2.7-2.3-12-2.39999-14.19999-0.10001"/>
    <path transform="translate(87, 0.2)" d="M1.06326 1.11401c-2.10001 2.10001-1.39999 3.39999 6.80001 12.80001 9.10001 10.60001 9.2 9-0.9 20.5-7.2 8-8.39999 10.8-5.5 11.89999 2 0.8 10.8 0.8 12.7 0 2.7-1 18.7-20.2 18.7-22.39999 0-2.3-16.10001-22-18.9-23.2-2.7-1.10001-11.60001-0.89999-12.89999 0.39999"/>
  </g>
  <text x="112" y="36" font-family="Inter, sans-serif" font-size="38" font-weight="700" letter-spacing="-1" fill="currentColor">Flume</text>
</svg>
